{
    "asset" : {
        "generator" : "Khronos glTF Blender I/O v3.2.43",
        "version" : "2.0"
    },
    "scene" : 0,
    "scenes" : [
        {
            "name" : "Scene",
            "nodes" : [
                20
            ]
        }
    ],
    "nodes" : [
        {
            "name" : "Bone.001",
            "rotation" : [
                0.038781460374593735,
                0.004999321885406971,
                -0.02958873100578785,
                0.9987970590591431
            ],
            "scale" : [
                0.9999998807907104,
                1,
                1
            ],
            "translation" : [
                7.343260222114623e-08,
                0.10650655627250671,
                -9.313225746154785e-09
            ]
        },
        {
            "children" : [
                0
            ],
            "name" : "Bone.002",
            "rotation" : [
                0.011381692253053188,
                -0.0014786033425480127,
                0.06344551593065262,
                0.9979193210601807
            ],
            "translation" : [
                -2.3283064365386963e-08,
                0.13561385869979858,
                3.725290298461914e-09
            ]
        },
        {
            "children" : [
                1
            ],
            "name" : "Bone.003",
            "rotation" : [
                0.003730297554284334,
                0.007607508450746536,
                0.1327035129070282,
                0.9911196827888489
            ],
            "scale" : [
                1,
                1,
                0.9999998807907104
            ],
            "translation" : [
                4.690946298069321e-09,
                0.33261677622795105,
                -1.280568540096283e-09
            ]
        },
        {
            "children" : [
                2
            ],
            "name" : "Bone",
            "rotation" : [
                0.011868640780448914,
                0.0015399029944092035,
                0.1110822930932045,
                0.9937391877174377
            ],
            "scale" : [
                0.9999999403953552,
                0.9999999403953552,
                0.9999998807907104
            ],
            "translation" : [
                -0.11772644519805908,
                0.24857839941978455,
                1.781526952981949e-05
            ]
        },
        {
            "name" : "Bone.007",
            "rotation" : [
                0.0310133695602417,
                0.015096031129360199,
                -0.03808929771184921,
                0.998678982257843
            ],
            "scale" : [
                1,
                0.9999998211860657,
                1
            ],
            "translation" : [
                1.0870280675590038e-08,
                0.1273663341999054,
                -3.259629011154175e-09
            ]
        },
        {
            "children" : [
                4
            ],
            "name" : "Bone.006",
            "rotation" : [
                0.03198713809251785,
                -0.002857459709048271,
                0.023197036236524582,
                0.9992150068283081
            ],
            "scale" : [
                1,
                0.9999999403953552,
                0.9999999403953552
            ],
            "translation" : [
                7.697963155806065e-09,
                0.15110525488853455,
                -2.3283064365386963e-10
            ]
        },
        {
            "children" : [
                5
            ],
            "name" : "Bone.005",
            "rotation" : [
                -0.047222282737493515,
                0.013246810995042324,
                0.02251841127872467,
                0.9985427260398865
            ],
            "scale" : [
                0.9999999403953552,
                0.9999998211860657,
                1
            ],
            "translation" : [
                1.5093974070623517e-08,
                0.3352251350879669,
                -4.190951585769653e-09
            ]
        },
        {
            "children" : [
                6
            ],
            "name" : "Bone.004",
            "rotation" : [
                0.03245219215750694,
                0.003936673514544964,
                0.08642430603504181,
                0.9957219362258911
            ],
            "scale" : [
                0.9999999403953552,
                0.9999999403953552,
                1
            ],
            "translation" : [
                -0.04886780306696892,
                0.2851022183895111,
                -0.009946746751666069
            ]
        },
        {
            "name" : "Bone.011",
            "rotation" : [
                0.007101259659975767,
                0.020705515518784523,
                0.006637487560510635,
                0.9997384548187256
            ],
            "scale" : [
                0.9999998211860657,
                0.9999999403953552,
                0.9999998807907104
            ],
            "translation" : [
                -7.566995918750763e-10,
                0.1398583948612213,
                4.0745362639427185e-10
            ]
        },
        {
            "children" : [
                8
            ],
            "name" : "Bone.010",
            "rotation" : [
                0.03528678044676781,
                0.0016613634070381522,
                -0.008741525001823902,
                0.9993377327919006
            ],
            "scale" : [
                0.9999998211860657,
                0.9999999403953552,
                1
            ],
            "translation" : [
                -7.712515071034431e-10,
                0.18120962381362915,
                -3.3760443329811096e-09
            ]
        },
        {
            "children" : [
                9
            ],
            "name" : "Bone.009",
            "rotation" : [
                -0.05413837730884552,
                0.0071054669097065926,
                0.01835634559392929,
                0.9983395338058472
            ],
            "scale" : [
                0.9999999403953552,
                1,
                1.0000001192092896
            ],
            "translation" : [
                1.7435013432987034e-09,
                0.32050883769989014,
                6.097252480685711e-09
            ]
        },
        {
            "children" : [
                10
            ],
            "name" : "Bone.008",
            "rotation" : [
                0.029300933703780174,
                0.005242559593170881,
                0.005117182154208422,
                0.9995439052581787
            ],
            "scale" : [
                0.9999998807907104,
                1,
                0.9999999403953552
            ],
            "translation" : [
                0.013176534324884415,
                0.31198158860206604,
                -0.015097090974450111
            ]
        },
        {
            "name" : "Bone.015",
            "rotation" : [
                0.04631836339831352,
                0.02151181362569332,
                -0.0020727538503706455,
                0.9986929297447205
            ],
            "translation" : [
                -4.920366336591542e-09,
                0.12291784584522247,
                2.6193447411060333e-09
            ]
        },
        {
            "children" : [
                12
            ],
            "name" : "Bone.014",
            "rotation" : [
                0.0041072675958275795,
                0.015903213992714882,
                -0.0007469794363714755,
                0.999864935874939
            ],
            "scale" : [
                1,
                0.9999999403953552,
                1
            ],
            "translation" : [
                -6.990521939087557e-09,
                0.13866929709911346,
                -6.257323548197746e-10
            ]
        },
        {
            "children" : [
                13
            ],
            "name" : "Bone.013",
            "rotation" : [
                -0.01865813136100769,
                -0.009981951676309109,
                0.019575508311390877,
                0.999584436416626
            ],
            "translation" : [
                -2.0372681319713593e-09,
                0.3397968113422394,
                4.6566128730773926e-09
            ]
        },
        {
            "children" : [
                14
            ],
            "name" : "Bone.012",
            "rotation" : [
                0.021394122391939163,
                0.008867235854268074,
                -0.07531392574310303,
                0.9968909025192261
            ],
            "scale" : [
                1,
                0.9999998807907104,
                0.9999999403953552
            ],
            "translation" : [
                0.07415951788425446,
                0.28885316848754883,
                -0.013343287631869316
            ]
        },
        {
            "name" : "Bone.017",
            "rotation" : [
                0.03236658498644829,
                0.029822520911693573,
                0.017015686258673668,
                0.9988861680030823
            ],
            "scale" : [
                1,
                0.9999998807907104,
                1
            ],
            "translation" : [
                1.1175870895385742e-08,
                0.13517531752586365,
                4.470348358154297e-08
            ]
        },
        {
            "children" : [
                16
            ],
            "name" : "Bone.018",
            "rotation" : [
                0.19021621346473694,
                -0.011258614249527454,
                0.08760649710893631,
                0.9777607917785645
            ],
            "scale" : [
                1,
                0.9999999403953552,
                1
            ],
            "translation" : [
                -6.332993507385254e-08,
                0.18823373317718506,
                -4.062894731760025e-08
            ]
        },
        {
            "children" : [
                17
            ],
            "name" : "Bone.016",
            "rotation" : [
                0.22684738039970398,
                0.06237189844250679,
                -0.2726164758205414,
                0.9329149723052979
            ],
            "translation" : [
                0.11316512525081635,
                0.25952157378196716,
                -0.0030895862728357315
            ]
        },
        {
            "mesh" : 0,
            "name" : "hand",
            "skin" : 0
        },
        {
            "children" : [
                19,
                3,
                7,
                11,
                15,
                18
            ],
            "name" : "Armature",
            "scale" : [
                15.873998641967773,
                15.873998641967773,
                15.873998641967773
            ],
            "translation" : [
                -0.46462488174438477,
                1.7061009407043457,
                -0.03582143783569336
            ]
        }
    ],
    "materials" : [
        {
            "doubleSided" : true,
            "name" : "defaultMat",
            "pbrMetallicRoughness" : {
                "baseColorFactor" : [
                    0.800000011920929,
                    0.800000011920929,
                    0.800000011920929,
                    1
                ],
                "metallicFactor" : 0
            }
        }
    ],
    "meshes" : [
        {
            "name" : "hand",
            "primitives" : [
                {
                    "attributes" : {
                        "POSITION" : 0,
                        "NORMAL" : 1,
                        "TEXCOORD_0" : 2,
                        "JOINTS_0" : 3,
                        "WEIGHTS_0" : 4
                    },
                    "indices" : 5,
                    "material" : 0
                }
            ]
        }
    ],
    "skins" : [
        {
            "inverseBindMatrices" : 6,
            "joints" : [
                3,
                2,
                1,
                0,
                7,
                6,
                5,
                4,
                11,
                10,
                9,
                8,
                15,
                14,
                13,
                12,
                18,
                17,
                16
            ],
            "name" : "Armature"
        }
    ],
    "accessors" : [
        {
            "bufferView" : 0,
            "componentType" : 5126,
            "count" : 4404,
            "max" : [
                4.7979631423950195,
                18.925939559936523,
                4.827434539794922
            ],
            "min" : [
                -6.607766628265381,
                -0.4170153737068176,
                -2.13767147064209
            ],
            "type" : "VEC3"
        },
        {
            "bufferView" : 1,
            "componentType" : 5126,
            "count" : 4404,
            "type" : "VEC3"
        },
        {
            "bufferView" : 2,
            "componentType" : 5126,
            "count" : 4404,
            "type" : "VEC2"
        },
        {
            "bufferView" : 3,
            "componentType" : 5121,
            "count" : 4404,
            "type" : "VEC4"
        },
        {
            "bufferView" : 4,
            "componentType" : 5126,
            "count" : 4404,
            "type" : "VEC4"
        },
        {
            "bufferView" : 5,
            "componentType" : 5123,
            "count" : 6600,
            "type" : "SCALAR"
        },
        {
            "bufferView" : 6,
            "componentType" : 5126,
            "count" : 19,
            "type" : "MAT4"
        }
    ],
    "bufferViews" : [
        {
            "buffer" : 0,
            "byteLength" : 52848,
            "byteOffset" : 0
        },
        {
            "buffer" : 0,
            "byteLength" : 52848,
            "byteOffset" : 52848
        },
        {
            "buffer" : 0,
            "byteLength" : 35232,
            "byteOffset" : 105696
        },
        {
            "buffer" : 0,
            "byteLength" : 17616,
            "byteOffset" : 140928
        },
        {
            "buffer" : 0,
            "byteLength" : 70464,
            "byteOffset" : 158544
        },
        {
            "buffer" : 0,
            "byteLength" : 13200,
            "byteOffset" : 229008
        },
        {
            "buffer" : 0,
            "byteLength" : 1216,
            "byteOffset" : 242208
        }
    ],
    "buffers" : [
        {
            "byteLength" : 243424,
            "uri" : "data:application/octet-stream;base64,"
        }
    ]
}
