{
    "asset" : {
        "generator" : "Khronos glTF Blender I/O v3.2.43",
        "version" : "2.0"
    },
    "scene" : 0,
    "scenes" : [
        {
            "name" : "Scene",
            "nodes" : [
                0,
                1,
                2,
                3,
                4
            ]
        }
    ],
    "nodes" : [
        {
            "mesh" : 0,
            "name" : "Cube"
        },
        {
            "mesh" : 1,
            "name" : "Cylinder",
            "translation" : [
                14,
                -1,
                20
            ]
        },
        {
            "mesh" : 2,
            "name" : "Cylinder.001",
            "rotation" : [
                0,
                0.7071068286895752,
                0,
                0.7071068286895752
            ],
            "translation" : [
                14,
                -1,
                -20
            ]
        },
        {
            "mesh" : 3,
            "name" : "Cylinder.002",
            "rotation" : [
                0,
                -1,
                0,
                4.371138828673793e-08
            ],
            "translation" : [
                -14,
                -1,
                -20
            ]
        },
        {
            "mesh" : 4,
            "name" : "Cylinder.003",
            "rotation" : [
                0,
                -0.7071068286895752,
                0,
                0.7071068286895752
            ],
            "translation" : [
                -14,
                -1,
                20
            ]
        }
    ],
    "materials" : [
        {
            "doubleSided" : true,
            "name" : "Material",
            "pbrMetallicRoughness" : {
                "baseColorTexture" : {
                    "index" : 0
                },
                "metallicFactor" : 0,
                "roughnessFactor" : 0.4000000059604645
            }
        }
    ],
    "meshes" : [
        {
            "name" : "Cube",
            "primitives" : [
                {
                    "attributes" : {
                        "POSITION" : 0,
                        "NORMAL" : 1,
                        "TEXCOORD_0" : 2
                    },
                    "indices" : 3,
                    "material" : 0
                }
            ]
        },
        {
            "name" : "Cylinder",
            "primitives" : [
                {
                    "attributes" : {
                        "POSITION" : 4,
                        "NORMAL" : 5,
                        "TEXCOORD_0" : 6
                    },
                    "indices" : 7
                }
            ]
        },
        {
            "name" : "Cylinder.001",
            "primitives" : [
                {
                    "attributes" : {
                        "POSITION" : 8,
                        "NORMAL" : 9,
                        "TEXCOORD_0" : 10
                    },
                    "indices" : 7
                }
            ]
        },
        {
            "name" : "Cylinder.002",
            "primitives" : [
                {
                    "attributes" : {
                        "POSITION" : 11,
                        "NORMAL" : 12,
                        "TEXCOORD_0" : 13
                    },
                    "indices" : 7
                }
            ]
        },
        {
            "name" : "Cylinder.003",
            "primitives" : [
                {
                    "attributes" : {
                        "POSITION" : 14,
                        "NORMAL" : 15,
                        "TEXCOORD_0" : 16
                    },
                    "indices" : 7
                }
            ]
        }
    ],
    "textures" : [
        {
            "sampler" : 0,
            "source" : 0
        }
    ],
    "images" : [
        {
            "bufferView" : 4,
            "mimeType" : "image/jpeg",
            "name" : "tafel3"
        }
    ],
    "accessors" : [
        {
            "bufferView" : 0,
            "componentType" : 5126,
            "count" : 56,
            "max" : [
                19.04534339904785,
                1,
                25.344791412353516
            ],
            "min" : [
                -19.04534339904785,
                -1,
                -25.344791412353516
            ],
            "type" : "VEC3"
        },
        {
            "bufferView" : 1,
            "componentType" : 5126,
            "count" : 56,
            "type" : "VEC3"
        },
        {
            "bufferView" : 2,
            "componentType" : 5126,
            "count" : 56,
            "type" : "VEC2"
        },
        {
            "bufferView" : 3,
            "componentType" : 5123,
            "count" : 108,
            "type" : "SCALAR"
        },
        {
            "bufferView" : 5,
            "componentType" : 5126,
            "count" : 192,
            "max" : [
                5.6146345138549805,
                1,
                7.624536037445068
            ],
            "min" : [
                -1,
                -16.693572998046875,
                -1
            ],
            "type" : "VEC3"
        },
        {
            "bufferView" : 6,
            "componentType" : 5126,
            "count" : 192,
            "type" : "VEC3"
        },
        {
            "bufferView" : 7,
            "componentType" : 5126,
            "count" : 192,
            "type" : "VEC2"
        },
        {
            "bufferView" : 8,
            "componentType" : 5123,
            "count" : 372,
            "type" : "SCALAR"
        },
        {
            "bufferView" : 9,
            "componentType" : 5126,
            "count" : 192,
            "max" : [
                5.6146345138549805,
                1,
                7.624536037445068
            ],
            "min" : [
                -1,
                -16.693572998046875,
                -1
            ],
            "type" : "VEC3"
        },
        {
            "bufferView" : 10,
            "componentType" : 5126,
            "count" : 192,
            "type" : "VEC3"
        },
        {
            "bufferView" : 11,
            "componentType" : 5126,
            "count" : 192,
            "type" : "VEC2"
        },
        {
            "bufferView" : 12,
            "componentType" : 5126,
            "count" : 192,
            "max" : [
                5.6146345138549805,
                1,
                7.624536037445068
            ],
            "min" : [
                -1,
                -16.693572998046875,
                -1
            ],
            "type" : "VEC3"
        },
        {
            "bufferView" : 13,
            "componentType" : 5126,
            "count" : 192,
            "type" : "VEC3"
        },
        {
            "bufferView" : 14,
            "componentType" : 5126,
            "count" : 192,
            "type" : "VEC2"
        },
        {
            "bufferView" : 15,
            "componentType" : 5126,
            "count" : 192,
            "max" : [
                5.6146345138549805,
                1,
                7.624536037445068
            ],
            "min" : [
                -1,
                -16.693572998046875,
                -1
            ],
            "type" : "VEC3"
        },
        {
            "bufferView" : 16,
            "componentType" : 5126,
            "count" : 192,
            "type" : "VEC3"
        },
        {
            "bufferView" : 17,
            "componentType" : 5126,
            "count" : 192,
            "type" : "VEC2"
        }
    ],
    "bufferViews" : [
        {
            "buffer" : 0,
            "byteLength" : 672,
            "byteOffset" : 0
        },
        {
            "buffer" : 0,
            "byteLength" : 672,
            "byteOffset" : 672
        },
        {
            "buffer" : 0,
            "byteLength" : 448,
            "byteOffset" : 1344
        },
        {
            "buffer" : 0,
            "byteLength" : 216,
            "byteOffset" : 1792
        },
        {
            "buffer" : 0,
            "byteLength" : 644616,
            "byteOffset" : 2008
        },
        {
            "buffer" : 0,
            "byteLength" : 2304,
            "byteOffset" : 646624
        },
        {
            "buffer" : 0,
            "byteLength" : 2304,
            "byteOffset" : 648928
        },
        {
            "buffer" : 0,
            "byteLength" : 1536,
            "byteOffset" : 651232
        },
        {
            "buffer" : 0,
            "byteLength" : 744,
            "byteOffset" : 652768
        },
        {
            "buffer" : 0,
            "byteLength" : 2304,
            "byteOffset" : 653512
        },
        {
            "buffer" : 0,
            "byteLength" : 2304,
            "byteOffset" : 655816
        },
        {
            "buffer" : 0,
            "byteLength" : 1536,
            "byteOffset" : 658120
        },
        {
            "buffer" : 0,
            "byteLength" : 2304,
            "byteOffset" : 659656
        },
        {
            "buffer" : 0,
            "byteLength" : 2304,
            "byteOffset" : 661960
        },
        {
            "buffer" : 0,
            "byteLength" : 1536,
            "byteOffset" : 664264
        },
        {
            "buffer" : 0,
            "byteLength" : 2304,
            "byteOffset" : 665800
        },
        {
            "buffer" : 0,
            "byteLength" : 2304,
            "byteOffset" : 668104
        },
        {
            "buffer" : 0,
            "byteLength" : 1536,
            "byteOffset" : 670408
        }
    ],
    "samplers" : [
        {
            "magFilter" : 9729,
            "minFilter" : 9987
        }
    ],
    "buffers" : [
        {
            "byteLength" : 671944,
            "uri" : "data:application/octet-stream;base64,"
        }
    ]
}
