{
    "asset" : {
        "generator" : "Khronos glTF Blender I/O v3.2.43",
        "version" : "2.0"
    },
    "scene" : 0,
    "scenes" : [
        {
            "name" : "Scene",
            "nodes" : [
                0,
                1,
                2,
                3,
                4
            ]
        }
    ],
    "nodes" : [
        {
            "mesh" : 0,
            "name" : "Cube"
        },
        {
            "mesh" : 1,
            "name" : "Cylinder",
            "translation" : [
                14,
                -1,
                20
            ]
        },
        {
            "mesh" : 2,
            "name" : "Cylinder.001",
            "rotation" : [
                0,
                0.7071068286895752,
                0,
                0.7071068286895752
            ],
            "translation" : [
                14,
                -1,
                -20
            ]
        },
        {
            "mesh" : 3,
            "name" : "Cylinder.002",
            "rotation" : [
                0,
                -1,
                0,
                4.371138828673793e-08
            ],
            "translation" : [
                -14,
                -1,
                -20
            ]
        },
        {
            "mesh" : 4,
            "name" : "Cylinder.003",
            "rotation" : [
                0,
                -0.7071068286895752,
                0,
                0.7071068286895752
            ],
            "translation" : [
                -14,
                -1,
                20
            ]
        }
    ],
    "materials" : [
        {
            "doubleSided" : true,
            "name" : "Material",
            "pbrMetallicRoughness" : {
                "baseColorFactor" : [
                    0.800000011920929,
                    0.800000011920929,
                    0.800000011920929,
                    1
                ],
                "metallicFactor" : 0,
                "roughnessFactor" : 0.4000000059604645
            }
        }
    ],
    "meshes" : [
        {
            "name" : "Cube",
            "primitives" : [
                {
                    "attributes" : {
                        "POSITION" : 0,
                        "NORMAL" : 1,
                        "TEXCOORD_0" : 2
                    },
                    "indices" : 3,
                    "material" : 0
                }
            ]
        },
        {
            "name" : "Cylinder",
            "primitives" : [
                {
                    "attributes" : {
                        "POSITION" : 4,
                        "NORMAL" : 5,
                        "TEXCOORD_0" : 6
                    },
                    "indices" : 7
                }
            ]
        },
        {
            "name" : "Cylinder.001",
            "primitives" : [
                {
                    "attributes" : {
                        "POSITION" : 8,
                        "NORMAL" : 9,
                        "TEXCOORD_0" : 10
                    },
                    "indices" : 7
                }
            ]
        },
        {
            "name" : "Cylinder.002",
            "primitives" : [
                {
                    "attributes" : {
                        "POSITION" : 11,
                        "NORMAL" : 12,
                        "TEXCOORD_0" : 13
                    },
                    "indices" : 7
                }
            ]
        },
        {
            "name" : "Cylinder.003",
            "primitives" : [
                {
                    "attributes" : {
                        "POSITION" : 14,
                        "NORMAL" : 15,
                        "TEXCOORD_0" : 16
                    },
                    "indices" : 7
                }
            ]
        }
    ],
    "accessors" : [
        {
            "bufferView" : 0,
            "componentType" : 5126,
            "count" : 122,
            "max" : [
                19.04534339904785,
                1,
                25.344791412353516
            ],
            "min" : [
                -19.04534339904785,
                -1,
                -25.344791412353516
            ],
            "type" : "VEC3"
        },
        {
            "bufferView" : 1,
            "componentType" : 5126,
            "count" : 122,
            "type" : "VEC3"
        },
        {
            "bufferView" : 2,
            "componentType" : 5126,
            "count" : 122,
            "type" : "VEC2"
        },
        {
            "bufferView" : 3,
            "componentType" : 5123,
            "count" : 288,
            "type" : "SCALAR"
        },
        {
            "bufferView" : 4,
            "componentType" : 5126,
            "count" : 192,
            "max" : [
                5.6146345138549805,
                1,
                7.624536037445068
            ],
            "min" : [
                -1,
                -16.693572998046875,
                -1
            ],
            "type" : "VEC3"
        },
        {
            "bufferView" : 5,
            "componentType" : 5126,
            "count" : 192,
            "type" : "VEC3"
        },
        {
            "bufferView" : 6,
            "componentType" : 5126,
            "count" : 192,
            "type" : "VEC2"
        },
        {
            "bufferView" : 7,
            "componentType" : 5123,
            "count" : 372,
            "type" : "SCALAR"
        },
        {
            "bufferView" : 8,
            "componentType" : 5126,
            "count" : 192,
            "max" : [
                5.6146345138549805,
                1,
                7.624536037445068
            ],
            "min" : [
                -1,
                -16.693572998046875,
                -1
            ],
            "type" : "VEC3"
        },
        {
            "bufferView" : 9,
            "componentType" : 5126,
            "count" : 192,
            "type" : "VEC3"
        },
        {
            "bufferView" : 10,
            "componentType" : 5126,
            "count" : 192,
            "type" : "VEC2"
        },
        {
            "bufferView" : 11,
            "componentType" : 5126,
            "count" : 192,
            "max" : [
                5.6146345138549805,
                1,
                7.624536037445068
            ],
            "min" : [
                -1,
                -16.693572998046875,
                -1
            ],
            "type" : "VEC3"
        },
        {
            "bufferView" : 12,
            "componentType" : 5126,
            "count" : 192,
            "type" : "VEC3"
        },
        {
            "bufferView" : 13,
            "componentType" : 5126,
            "count" : 192,
            "type" : "VEC2"
        },
        {
            "bufferView" : 14,
            "componentType" : 5126,
            "count" : 192,
            "max" : [
                5.6146345138549805,
                1,
                7.624536037445068
            ],
            "min" : [
                -1,
                -16.693572998046875,
                -1
            ],
            "type" : "VEC3"
        },
        {
            "bufferView" : 15,
            "componentType" : 5126,
            "count" : 192,
            "type" : "VEC3"
        },
        {
            "bufferView" : 16,
            "componentType" : 5126,
            "count" : 192,
            "type" : "VEC2"
        }
    ],
    "bufferViews" : [
        {
            "buffer" : 0,
            "byteLength" : 1464,
            "byteOffset" : 0
        },
        {
            "buffer" : 0,
            "byteLength" : 1464,
            "byteOffset" : 1464
        },
        {
            "buffer" : 0,
            "byteLength" : 976,
            "byteOffset" : 2928
        },
        {
            "buffer" : 0,
            "byteLength" : 576,
            "byteOffset" : 3904
        },
        {
            "buffer" : 0,
            "byteLength" : 2304,
            "byteOffset" : 4480
        },
        {
            "buffer" : 0,
            "byteLength" : 2304,
            "byteOffset" : 6784
        },
        {
            "buffer" : 0,
            "byteLength" : 1536,
            "byteOffset" : 9088
        },
        {
            "buffer" : 0,
            "byteLength" : 744,
            "byteOffset" : 10624
        },
        {
            "buffer" : 0,
            "byteLength" : 2304,
            "byteOffset" : 11368
        },
        {
            "buffer" : 0,
            "byteLength" : 2304,
            "byteOffset" : 13672
        },
        {
            "buffer" : 0,
            "byteLength" : 1536,
            "byteOffset" : 15976
        },
        {
            "buffer" : 0,
            "byteLength" : 2304,
            "byteOffset" : 17512
        },
        {
            "buffer" : 0,
            "byteLength" : 2304,
            "byteOffset" : 19816
        },
        {
            "buffer" : 0,
            "byteLength" : 1536,
            "byteOffset" : 22120
        },
        {
            "buffer" : 0,
            "byteLength" : 2304,
            "byteOffset" : 23656
        },
        {
            "buffer" : 0,
            "byteLength" : 2304,
            "byteOffset" : 25960
        },
        {
            "buffer" : 0,
            "byteLength" : 1536,
            "byteOffset" : 28264
        }
    ],
    "buffers" : [
        {
            "byteLength" : 29800,
            "uri" : "data:application/octet-stream;base64,"
        }
    ]
}
